PathFileType	4	(X/Y/Z)	/Users/itak/Documents/Research/Walk-IL/dataset/trc/00242_00009.trc
DataRate	CameraRate	NumFrames	NumMarkers	Units	OrigDataRate	OrigDataStartFrame	OrigNumFrames
100.000000	100.000000	4	53	mm	100.000000	208	832
Frame#	Time	RPSI			LPSI			L3			STRN			T10			C7			CLAV			RBAK			LBAK			LSHO			LUPA			LAEL			LAOL			LWTS			LWPS			LFRA			LIFD			LHPS			LHTS			RSHO			RUPA			RAEL			RAOL			RWTS			RWPS			RFRA			RIFD			RHTS			RHPS			RBHD			LFHD			RFHD			LBHD			LHIP			RHIP			RASI			LASI			LKNE			LTHI			LANK			LTIP			LTOE			LMT1			LMT5			LHEE			RKNE			RTHI			RANK			RTIP			RTOE			RMT1			RMT5			RHEE			
		X1	Y1	Z1	X2	Y2	Z2	X3	Y3	Z3	X4	Y4	Z4	X5	Y5	Z5	X6	Y6	Z6	X7	Y7	Z7	X8	Y8	Z8	X9	Y9	Z9	X10	Y10	Z10	X11	Y11	Z11	X12	Y12	Z12	X13	Y13	Z13	X14	Y14	Z14	X15	Y15	Z15	X16	Y16	Z16	X17	Y17	Z17	X18	Y18	Z18	X19	Y19	Z19	X20	Y20	Z20	X21	Y21	Z21	X22	Y22	Z22	X23	Y23	Z23	X24	Y24	Z24	X25	Y25	Z25	X26	Y26	Z26	X27	Y27	Z27	X28	Y28	Z28	X29	Y29	Z29	X30	Y30	Z30	X31	Y31	Z31	X32	Y32	Z32	X33	Y33	Z33	X34	Y34	Z34	X35	Y35	Z35	X36	Y36	Z36	X37	Y37	Z37	X38	Y38	Z38	X39	Y39	Z39	X40	Y40	Z40	X41	Y41	Z41	X42	Y42	Z42	X43	Y43	Z43	X44	Y44	Z44	X45	Y45	Z45	X46	Y46	Z46	X47	Y47	Z47	X48	Y48	Z48	X49	Y49	Z49	X50	Y50	Z50	X51	Y51	Z51	X52	Y52	Z52	X53	Y53	Z53	

209	2.08	-192.3909912109375	1030.794555664062	728.9855346679688	-284.8985900878906	1044.920776367188	803.9120483398438	-251.2313537597656	1128.819458007812	778.0563354492188	-421.5161437988281	1294.41748046875	581.10498046875	-251.5544738769531	1255.257080078125	774.0184326171875	-310.6768188476562	1511.844848632812	716.2210083007812	-410.5676574707031	1414.00830078125	593.8670043945312	-196.3709716796875	1380.919189453125	733.2410888671875	-380.7657775878906	1473.45458984375	805.5670166015625	-478.8976440429688	1468.311401367188	770.4673461914062	-531.3646850585938	1359.101196289062	844.3801879882812	-605.524169921875	1160.293579101562	845.84326171875	-532.8145751953125	1124.817260742188	877.544921875	-656.7670288085938	956.2095947265625	699.5126953125	-714.9312133789062	941.1119995117188	759.265380859375	-652.4003295898438	1064.04443359375	817.6463623046875	-697.6878051757812	782.6972045898438	672.8377075195312	-742.3876342773438	862.8027954101562	723.5196533203125	-716.5911865234375	874.8255004882812	660.3387451171875	-217.064453125	1469.7529296875	563.4364624023438	-148.6647796630859	1408.4658203125	538.4276733398438	-85.98450469970703	1130.274169921875	545.8720092773438	-130.3236389160156	1124.914916992188	630.1398315429688	-223.9046325683594	930.7037353515625	468.5025024414062	-140.8703918457031	906.38037109375	464.3117980957031	-95.41153717041016	1061.612670898438	517.2787475585938	-265.4883728027344	753.3209838867188	422.1931762695312	-250.9676666259766	828.9359130859375	402.780517578125	-181.0091857910156	812.4448852539062	413.2431945800781	-327.9865417480469	1674.0322265625	625.9517822265625	-521.3482055664062	1654.77392578125	507.95166015625	-437.4701232910156	1653.456665039062	452.67626953125	-463.5166015625	1667.592895507812	662.2031860351562	-458.8222961425781	989.6679077148438	821.5811157226562	-176.8714599609375	988.1207885742188	586.1171875	-267.2655029296875	1032.874389648438	536.03125	-490.0385131835938	1025.616943359375	710.6782836914062	-434.0869445800781	503.0946044921875	785.5573120117188	-458.3447265625	648.02392578125	798.3475952148438	-322.8752746582031	37.43598556518555	868.5650024414062	-381.6049499511719	282.5646057128906	838.6746215820312	-438.8545837402344	44.31105422973633	678.384521484375	-360.875732421875	41.32321548461914	694.5906982421875	-427.8611145019531	36.82812881469727	793.910400390625	-243.7634124755859	49.1355094909668	872.21435546875	-327.3685607910156	528.3584594726562	460.0218811035156	-233.5371551513672	783.287353515625	502.6961364746094	-359.0625610351562	39.85949325561523	559.4403076171875	-358.4403381347656	408.9178771972656	461.6672058105469	-484.3104553222656	85.78139495849609	400.5603637695312	-501.6356201171875	73.81363677978516	467.4779968261719	-386.5189514160156	47.12857818603516	451.7708435058594	-380.6871948242188	42.86843490600586	640.9574584960938	
210	2.09	-197.3558349609375	1029.915161132812	725.8983154296875	-290.5794677734375	1044.101318359375	799.8158569335938	-256.6061401367188	1127.943359375	774.3284301757812	-424.5789184570312	1293.613525390625	575.5111694335938	-256.7033081054688	1254.377685546875	770.2871704101562	-315.2531127929688	1510.98095703125	711.76904296875	-413.7046813964844	1413.182983398438	588.3851928710938	-201.0947418212891	1379.984497070312	730.0043334960938	-385.9859619140625	1472.612548828125	800.4800415039062	-483.8705749511719	1467.57275390625	764.2501220703125	-537.34521484375	1358.410400390625	837.4705200195312	-611.9408569335938	1159.806884765625	837.8501586914062	-539.8211059570312	1124.059814453125	870.3760375976562	-661.8204345703125	956.5014038085938	689.9810180664062	-720.8404541015625	941.3646240234375	748.8305053710938	-658.6356201171875	1063.76611328125	808.4617919921875	-703.431640625	782.9100341796875	662.3215942382812	-747.9715576171875	863.3330078125	712.3632202148438	-721.3223266601562	875.4651489257812	649.6190795898438	-219.9459991455078	1468.84521484375	559.9647827148438	-151.1604614257812	1407.556030273438	535.8397216796875	-88.42265319824219	1129.411865234375	544.9608154296875	-133.9305267333984	1124.189697265625	628.5590209960938	-225.0541534423828	929.57080078125	466.4149169921875	-141.8121337890625	905.3035278320312	463.2171325683594	-97.34864807128906	1060.6552734375	516.41943359375	-265.7552185058594	753.1923828125	417.5860290527344	-250.8581390380859	828.9102783203125	398.89404296875	-181.0769958496094	812.1527709960938	410.3944396972656	-331.4252319335938	1673.228515625	621.3799438476562	-523.6307373046875	1654.021484375	501.5018310546875	-439.1965026855469	1652.69189453125	447.0553283691406	-467.2891845703125	1666.7705078125	656.3069458007812	-464.6208801269531	988.908203125	815.84130859375	-180.2832794189453	987.079345703125	583.2515869140625	-270.2327880859375	1031.877685546875	532.1932983398438	-493.7663879394531	1024.72265625	705.8627319335938	-435.7973022460938	502.5413208007812	783.3016967773438	-461.486572265625	647.3359985351562	794.7073974609375	-322.8659973144531	37.55678558349609	868.5098266601562	-382.4635314941406	282.6296997070312	837.8233032226562	-438.8661193847656	44.27849960327148	678.3400268554688	-360.8724975585938	41.34015274047852	694.5498046875	-427.8820190429688	36.81901550292969	793.904296875	-243.7557678222656	49.57958221435547	872.2625122070312	-329.724853515625	527.5770263671875	455.9366149902344	-235.0519561767578	782.4298706054688	499.5970764160156	-377.5665893554688	38.0079345703125	544.79296875	-363.6425476074219	408.7286682128906	454.93408203125	-496.4570617675781	89.45692443847656	382.5886840820312	-516.2412719726562	77.01216888427734	448.6692199707031	-401.3788146972656	47.57321548461914	436.4079284667969	-401.884521484375	40.25714111328125	625.5355224609375	
211	2.1	-202.33154296875	1028.944213867188	722.64453125	-296.2249755859375	1043.199584960938	795.5731201171875	-261.9511108398438	1126.970947265625	770.4677734375	-427.6291198730469	1292.725341796875	569.832275390625	-261.8448486328125	1253.3974609375	766.4224243164062	-319.7727966308594	1510.034301757812	707.1928100585938	-416.8002319335938	1412.280517578125	582.8087768554688	-205.8039855957031	1378.93115234375	726.59912109375	-391.1585083007812	1471.702392578125	795.2613525390625	-488.7711791992188	1466.771850585938	757.9090576171875	-543.2657470703125	1357.672241210938	830.442626953125	-618.1797485351562	1159.232055664062	829.8204345703125	-546.5839233398438	1123.250244140625	863.1520385742188	-666.5853881835938	956.6210327148438	680.5057373046875	-726.4230346679688	941.455322265625	738.4436645507812	-664.64697265625	1063.37939453125	799.3056640625	-708.7420654296875	782.9796142578125	651.8508911132812	-753.2174072265625	863.70361328125	701.2952270507812	-725.6925659179688	875.9254760742188	638.9843139648438	-222.8125915527344	1467.838256835938	556.3795776367188	-153.6351470947266	1406.559204101562	533.1176147460938	-90.8629150390625	1128.471069335938	543.8917236328125	-137.5862579345703	1123.374389648438	626.7930297851562	-226.1894378662109	928.3461303710938	464.0853576660156	-142.7957458496094	904.1425170898438	461.9585571289062	-99.31587219238281	1059.614990234375	515.4059448242188	-265.7913513183594	752.7763671875	413.0186462402344	-250.6289825439453	828.60302734375	394.9922180175781	-181.0208740234375	811.6946411132812	407.5562133789062	-334.7929382324219	1672.344116210938	616.696533203125	-525.8567504882812	1653.210083007812	494.9875183105469	-440.90234375	1651.869750976562	441.3628540039062	-470.984619140625	1665.877075195312	650.333251953125	-470.3675231933594	988.0758056640625	810.0087280273438	-183.7234344482422	985.9338989257812	580.2257690429688	-273.2486877441406	1030.79296875	528.2478637695312	-497.1625671386719	1023.701293945312	701.4109497070312	-437.5446472167969	501.9902954101562	781.0166625976562	-464.6029663085938	646.626708984375	791.0689086914062	-322.8853149414062	37.69916152954102	868.437744140625	-383.3741455078125	282.7186279296875	836.954833984375	-438.881591796875	44.24518203735352	678.2928466796875	-360.8800964355469	41.35116195678711	694.5296020507812	-427.9041748046875	36.80393218994141	793.9073486328125	-243.7409210205078	50.04715347290039	872.2970581054688	-332.2212524414062	526.5684814453125	452.0519104003906	-236.7459411621094	781.4430541992188	496.4493103027344	-395.4229736328125	36.52011108398438	530.0911254882812	-368.8030090332031	408.4267272949219	448.4223022460938	-507.8810729980469	93.14727783203125	364.9710998535156	-530.015625	80.35371398925781	430.1449890136719	-415.5980529785156	48.17467498779297	421.1829528808594	-422.328125	38.19643783569336	609.9964599609375	
212	2.11	-207.2955017089844	1027.87841796875	719.21875	-301.8222961425781	1042.213256835938	791.180419921875	-267.2592163085938	1125.900390625	766.47607421875	-430.6661071777344	1291.752075195312	564.0681762695312	-266.9748840332031	1252.315307617188	762.4231567382812	-324.2404479980469	1509.004760742188	702.495361328125	-419.8570556640625	1411.299194335938	577.138427734375	-210.5034942626953	1377.757690429688	723.0294799804688	-396.2962951660156	1470.724975585938	789.9091796875	-493.6081237792969	1465.902465820312	751.4453735351562	-549.11865234375	1356.881713867188	823.3006591796875	-624.2586669921875	1158.568725585938	821.7500610351562	-553.1204833984375	1122.387451171875	855.8842163085938	-671.0503540039062	956.569091796875	671.0878295898438	-731.6943969726562	941.3795166015625	728.095703125	-670.462158203125	1062.88037109375	790.20458984375	-713.5922241210938	782.8937377929688	641.4378051757812	-758.1416015625	863.8901977539062	690.3020629882812	-729.7014770507812	876.19140625	628.4324340820312	-225.6503753662109	1466.7353515625	552.6897583007812	-156.0955810546875	1405.476806640625	530.2610473632812	-93.31270599365234	1127.452880859375	542.6292114257812	-141.293212890625	1122.470336914062	624.810302734375	-227.3043060302734	927.0161743164062	461.4957885742188	-143.8233947753906	902.8880615234375	460.5180053710938	-101.3224792480469	1058.488159179688	514.2092895507812	-265.6423645019531	752.047607421875	408.5268859863281	-250.2949981689453	827.98046875	391.0863037109375	-180.8666229248047	811.0296020507812	404.7410278320312	-338.0870056152344	1671.3740234375	611.8992309570312	-528.0255737304688	1652.342529296875	488.4058227539062	-442.5862731933594	1650.986572265625	435.5929565429688	-474.6006774902344	1664.918579101562	644.2803955078125	-476.0542297363281	987.163818359375	804.0856323242188	-187.1972045898438	984.6865844726562	577.0250854492188	-276.3095092773438	1029.62451171875	524.1863403320312	-500.287353515625	1022.550903320312	697.228759765625	-439.3445739746094	501.4335632324219	778.6930541992188	-467.7115478515625	645.9002075195312	787.42724609375	-322.9334411621094	37.86736297607422	868.34814453125	-384.3381042480469	282.8174743652344	836.0650634765625	-438.8943176269531	44.2131233215332	678.2454223632812	-360.9014282226562	41.36008453369141	694.526123046875	-427.9289245605469	36.78237152099609	793.9193725585938	-243.7330474853516	50.52834701538086	872.3120727539062	-334.9330139160156	525.35693359375	448.3312683105469	-238.674072265625	780.32421875	493.2152709960938	-412.5171813964844	35.36107635498047	515.4010620117188	-373.948486328125	408.0276794433594	442.1284484863281	-518.4755859375	96.80638122558594	347.7133483886719	-542.8773803710938	83.77448272705078	411.9264831542969	-429.0565185546875	48.92021560668945	406.1383972167969	-441.9095153808594	36.61699676513672	594.4188842773438	
